<svg width="27" height="27" viewBox="0 0 27 27" xmlns="http://www.w3.org/2000/svg">
<g clip-path="url(#clip0)">
<path d="M26.5992 9.75927C26.2426 9.31198 25.7077 9.05537 25.1316 9.05537H19.9318L17.1121 2.59895C16.9373 2.19864 16.471 2.0157 16.0706 2.19062C15.6703 2.36544 15.4875 2.83177 15.6623 3.23213L18.2054 9.05543H8.79457L11.3377 3.23213C11.5125 2.83177 11.3297 2.36549 10.9294 2.19062C10.5291 2.0157 10.0627 2.19853 9.88791 2.59895L7.06826 9.05543H1.86844C1.29226 9.05543 0.757374 9.31198 0.400837 9.75932C0.0508392 10.1985 -0.0783072 10.7631 0.046515 11.3084L2.82335 23.4374C3.01725 24.2843 3.76645 24.8757 4.64527 24.8757H22.3547C23.2336 24.8757 23.9828 24.2843 24.1767 23.4374L26.9535 11.3084C27.0783 10.763 26.9492 10.1984 26.5992 9.75927ZM22.3547 23.2937H4.64527C4.51095 23.2937 4.3933 23.2056 4.36551 23.0842L1.58868 10.9554C1.5669 10.8602 1.60344 10.7886 1.63804 10.7453C1.6701 10.705 1.74272 10.6375 1.86844 10.6375H6.37738L6.17019 11.1119C5.99537 11.5123 6.17815 11.9785 6.57851 12.1534C6.68155 12.1984 6.78892 12.2198 6.89465 12.2198C7.19956 12.2198 7.49013 12.0424 7.61996 11.7451L8.10369 10.6376H18.8964L19.3802 11.7451C19.51 12.0425 19.8006 12.2198 20.1055 12.2198C20.2111 12.2198 20.3186 12.1984 20.4216 12.1534C20.822 11.9786 21.0048 11.5123 20.8299 11.1119L20.6227 10.6375H25.1317C25.2574 10.6375 25.33 10.705 25.3621 10.7453C25.3966 10.7886 25.4332 10.8603 25.4114 10.9553L22.6346 23.0842C22.6068 23.2056 22.4891 23.2937 22.3547 23.2937Z"/>
<path d="M8.75391 14.0652C8.31705 14.0652 7.96289 14.4193 7.96289 14.8562V20.657C7.96289 21.0938 8.31705 21.448 8.75391 21.448C9.19076 21.448 9.54492 21.0938 9.54492 20.657V14.8562C9.54492 14.4193 9.19081 14.0652 8.75391 14.0652Z" />
<path d="M13.5 14.0652C13.0631 14.0652 12.709 14.4193 12.709 14.8562V20.657C12.709 21.0938 13.0631 21.448 13.5 21.448C13.9369 21.448 14.291 21.0938 14.291 20.657V14.8562C14.291 14.4193 13.9369 14.0652 13.5 14.0652Z"/>
<path d="M18.2461 14.0652C17.8092 14.0652 17.4551 14.4193 17.4551 14.8562V20.657C17.4551 21.0938 17.8092 21.448 18.2461 21.448C18.6829 21.448 19.0371 21.0938 19.0371 20.657V14.8562C19.0371 14.4193 18.6829 14.0652 18.2461 14.0652Z" />
</g>
<defs>
<clipPath id="clip0">
<rect width="27" height="27"/>
</clipPath>
</defs>
</svg>
