<svg width="119" height="20" viewBox="0 0 119 20" xmlns="http://www.w3.org/2000/svg">
<path d="M2.625 19.25C2.125 19.25 1.7 19.0833 1.35 18.75C1 18.4 0.825 17.975 0.825 17.475C0.825 16.9583 0.991667 16.5333 1.325 16.2C1.675 15.85 2.10833 15.675 2.625 15.675C3.14167 15.675 3.56667 15.85 3.9 16.2C4.25 16.5333 4.425 16.9583 4.425 17.475C4.425 17.975 4.25 18.4 3.9 18.75C3.56667 19.0833 3.14167 19.25 2.625 19.25ZM10.9504 7.1L11.0254 9.1V19H8.22539V0.599998H8.57539L19.3754 12.65L19.2754 10.55V0.625H22.0754V19H21.7004L10.9504 7.1ZM31.1494 19.25C29.9661 19.25 28.9161 18.9833 27.9994 18.45C27.0827 17.9167 26.3744 17.1917 25.8744 16.275C25.3744 15.3583 25.1244 14.3417 25.1244 13.225C25.1244 12.125 25.3661 11.1167 25.8494 10.2C26.3494 9.28333 27.0577 8.55833 27.9744 8.025C28.8911 7.49167 29.9494 7.225 31.1494 7.225C32.3494 7.225 33.3994 7.49167 34.2994 8.025C35.2161 8.55833 35.9161 9.28333 36.3994 10.2C36.8994 11.1167 37.1494 12.125 37.1494 13.225C37.1494 14.3417 36.8994 15.3583 36.3994 16.275C35.8994 17.1917 35.1911 17.9167 34.2744 18.45C33.3744 18.9833 32.3327 19.25 31.1494 19.25ZM31.2244 17.05C32.1911 17.05 32.9494 16.6917 33.4994 15.975C34.0661 15.2583 34.3494 14.3583 34.3494 13.275C34.3494 12.1917 34.0494 11.2833 33.4494 10.55C32.8494 9.8 32.0577 9.425 31.0744 9.425C30.1244 9.425 29.3577 9.79167 28.7744 10.525C28.2077 11.2583 27.9244 12.175 27.9244 13.275C27.9244 14.3417 28.2327 15.2417 28.8494 15.975C29.4661 16.6917 30.2577 17.05 31.2244 17.05ZM38.2078 7.525H41.2828L43.7578 12.7L44.5578 14.775L45.3578 12.7L47.8078 7.525H50.8078L44.7828 19H44.2578L38.2078 7.525ZM57.6078 19.25C56.5745 19.25 55.6161 19.0083 54.7328 18.525C53.8661 18.025 53.1661 17.325 52.6328 16.425C52.1161 15.5083 51.8578 14.4417 51.8578 13.225C51.8578 12.025 52.0828 10.975 52.5328 10.075C52.9995 9.175 53.6578 8.475 54.5078 7.975C55.3578 7.475 56.3578 7.225 57.5078 7.225C58.1745 7.225 58.7995 7.34167 59.3828 7.575C59.9661 7.80833 60.4578 8.1 60.8578 8.45C61.2578 8.78333 61.5245 9.11667 61.6578 9.45L61.7078 7.525H64.2828V19H61.7328L61.6828 16.975C61.3995 17.575 60.8828 18.1083 60.1328 18.575C59.3828 19.025 58.5411 19.25 57.6078 19.25ZM58.0578 17C59.0078 17 59.8078 16.675 60.4578 16.025C61.1078 15.3583 61.4328 14.4917 61.4328 13.425V13.25C61.4328 12.5333 61.2828 11.8917 60.9828 11.325C60.6828 10.7583 60.2745 10.3167 59.7578 10C59.2411 9.68333 58.6745 9.525 58.0578 9.525C56.9911 9.525 56.1661 9.875 55.5828 10.575C54.9995 11.2583 54.7078 12.15 54.7078 13.25C54.7078 14.3667 54.9911 15.275 55.5578 15.975C56.1411 16.6583 56.9745 17 58.0578 17ZM68.9887 9.675H67.1387V7.525H68.9887V5.05C68.9887 3.55 69.347 2.39167 70.0637 1.575C70.797 0.741666 71.8637 0.324999 73.2637 0.324999C73.8303 0.324999 74.472 0.483332 75.1887 0.799999L74.6637 3.35C74.547 3.21667 74.3637 3.09167 74.1137 2.975C73.8803 2.84167 73.622 2.775 73.3387 2.775C72.222 2.775 71.6553 3.5 71.6387 4.95V7.525H74.3387V9.675H71.6387V19H68.9887V9.675ZM77.1887 0.625H79.8637V19H77.1887V0.625ZM89.0107 19.25C87.8274 19.25 86.7774 18.9833 85.8607 18.45C84.9441 17.9167 84.2357 17.1917 83.7357 16.275C83.2357 15.3583 82.9857 14.3417 82.9857 13.225C82.9857 12.125 83.2274 11.1167 83.7107 10.2C84.2107 9.28333 84.9191 8.55833 85.8357 8.025C86.7524 7.49167 87.8107 7.225 89.0107 7.225C90.2107 7.225 91.2607 7.49167 92.1607 8.025C93.0774 8.55833 93.7774 9.28333 94.2607 10.2C94.7607 11.1167 95.0107 12.125 95.0107 13.225C95.0107 14.3417 94.7607 15.3583 94.2607 16.275C93.7607 17.1917 93.0524 17.9167 92.1357 18.45C91.2357 18.9833 90.1941 19.25 89.0107 19.25ZM89.0857 17.05C90.0524 17.05 90.8107 16.6917 91.3607 15.975C91.9274 15.2583 92.2107 14.3583 92.2107 13.275C92.2107 12.1917 91.9107 11.2833 91.3107 10.55C90.7107 9.8 89.9191 9.425 88.9357 9.425C87.9857 9.425 87.2191 9.79167 86.6357 10.525C86.0691 11.2583 85.7857 12.175 85.7857 13.275C85.7857 14.3417 86.0941 15.2417 86.7107 15.975C87.3274 16.6917 88.1191 17.05 89.0857 17.05ZM97.8191 7.525H100.519V9.775C100.786 9.00833 101.219 8.39167 101.819 7.925C102.419 7.45833 103.102 7.225 103.869 7.225C104.402 7.225 104.769 7.275 104.969 7.375L104.594 10.1C104.444 10 104.119 9.95 103.619 9.95C102.836 9.95 102.119 10.2 101.469 10.7C100.836 11.2 100.519 12 100.519 13.1V19H97.8191V7.525ZM111.954 19.25C110.92 19.25 109.962 19.0083 109.079 18.525C108.212 18.025 107.512 17.325 106.979 16.425C106.462 15.5083 106.204 14.4417 106.204 13.225C106.204 12.025 106.429 10.975 106.879 10.075C107.345 9.175 108.004 8.475 108.854 7.975C109.704 7.475 110.704 7.225 111.854 7.225C112.52 7.225 113.145 7.34167 113.729 7.575C114.312 7.80833 114.804 8.1 115.204 8.45C115.604 8.78333 115.87 9.11667 116.004 9.45L116.054 7.525H118.629V19H116.079L116.029 16.975C115.745 17.575 115.229 18.1083 114.479 18.575C113.729 19.025 112.887 19.25 111.954 19.25ZM112.404 17C113.354 17 114.154 16.675 114.804 16.025C115.454 15.3583 115.779 14.4917 115.779 13.425V13.25C115.779 12.5333 115.629 11.8917 115.329 11.325C115.029 10.7583 114.62 10.3167 114.104 10C113.587 9.68333 113.02 9.525 112.404 9.525C111.337 9.525 110.512 9.875 109.929 10.575C109.345 11.2583 109.054 12.15 109.054 13.25C109.054 14.3667 109.337 15.275 109.904 15.975C110.487 16.6583 111.32 17 112.404 17Z"/>
</svg>
