<svg width="24" height="23" viewBox="0 0 24 23" xmlns="http://www.w3.org/2000/svg">
<g clip-path="url(#clip0)">
<path d="M6.35759 5.23409C6.02551 4.90211 5.48674 4.90211 5.15467 5.23409C3.92171 6.46566 3.31571 8.18132 3.49182 9.94145C3.53576 10.3799 3.90556 10.7068 4.33743 10.7068C4.36581 10.7068 4.39441 10.7053 4.42279 10.7025C4.89041 10.6558 5.23153 10.2391 5.18476 9.77232C5.05942 8.52147 5.48706 7.30521 6.35759 6.43561C6.68993 6.10395 6.68993 5.56575 6.35759 5.23409Z"/>
<path d="M9.72642 0C4.36325 0 0 4.35837 0 9.71552C0 15.0727 4.36325 19.431 9.72642 19.431C15.0896 19.431 19.4528 15.0727 19.4528 9.71552C19.4528 4.35837 15.0895 0 9.72642 0ZM9.72642 17.7315C5.30133 17.7315 1.70143 14.1357 1.70143 9.71552C1.70143 5.29539 5.30133 1.69953 9.72642 1.69953C14.1512 1.69953 17.7514 5.29539 17.7514 9.71552C17.7514 14.1357 14.1515 17.7315 9.72642 17.7315Z"/>
<path d="M22.7766 21.5495L16.5947 15.3746C16.2624 15.0426 15.7242 15.0426 15.3918 15.3746C15.0595 15.7063 15.0595 16.2445 15.3918 16.5762L21.5736 22.751C21.7398 22.917 21.9573 23 22.1751 23C22.3929 23 22.6104 22.917 22.7766 22.751C23.1089 22.4193 23.1089 21.8812 22.7766 21.5495Z"/>
</g>
<defs>
<clipPath id="clip0">
<rect width="23.0258" height="23"/>
</clipPath>
</defs>
</svg>
