<svg width="33" height="33" viewBox="0 0 33 33" fill="none" xmlns="http://www.w3.org/2000/svg">
<path d="M16.5 0.257812C9.53423 0.257812 3.86719 5.92485 3.86719 12.8906C3.86719 16.2744 5.91725 20.6198 9.96039 25.8056C11.8127 28.1754 13.8187 30.4209 15.9654 32.5277C16.1094 32.6653 16.3008 32.7422 16.5 32.7422C16.6992 32.7422 16.8906 32.6653 17.0346 32.5277C19.1813 30.4209 21.1873 28.1754 23.0396 25.8056C27.0828 20.6198 29.1328 16.2744 29.1328 12.8906C29.1328 5.92485 23.4658 0.257812 16.5 0.257812ZM16.5 21.9141C11.5242 21.9141 7.47656 17.8664 7.47656 12.8906C7.47656 7.91484 11.5242 3.86719 16.5 3.86719C21.4758 3.86719 25.5234 7.91484 25.5234 12.8906C25.5234 17.8664 21.4758 21.9141 16.5 21.9141Z" fill="#021E05"/>
<path d="M22.6921 11.8027L17.0203 6.64645C16.8779 6.51703 16.6924 6.44531 16.5 6.44531C16.3076 6.44531 16.1221 6.51703 15.9797 6.64645L10.3079 11.8027C10.1757 11.9229 10.0892 12.085 10.063 12.2617C10.0368 12.4384 10.0725 12.6187 10.1641 12.772C10.2364 12.8888 10.3377 12.9848 10.4581 13.0507C10.5785 13.1167 10.7139 13.1504 10.8512 13.1484H11.6016V18.0469C11.6016 18.252 11.6831 18.4487 11.8281 18.5938C11.9731 18.7388 12.1699 18.8203 12.375 18.8203H14.1797C14.3848 18.8203 14.5815 18.7388 14.7266 18.5938C14.8716 18.4487 14.9531 18.252 14.9531 18.0469V15.2109C14.9531 15.0058 15.0346 14.8091 15.1797 14.664C15.3247 14.519 15.5214 14.4375 15.7266 14.4375H17.2734C17.4786 14.4375 17.6753 14.519 17.8203 14.664C17.9654 14.8091 18.0469 15.0058 18.0469 15.2109V18.0469C18.0469 18.252 18.1284 18.4487 18.2734 18.5938C18.4185 18.7388 18.6152 18.8203 18.8203 18.8203H20.625C20.8301 18.8203 21.0269 18.7388 21.1719 18.5938C21.317 18.4487 21.3984 18.252 21.3984 18.0469V13.1484H22.1488C22.2861 13.1504 22.4215 13.1167 22.5419 13.0507C22.6624 12.9848 22.7636 12.8888 22.8359 12.772C22.9275 12.6187 22.9632 12.4384 22.937 12.2617C22.9108 12.085 22.8243 11.9229 22.6921 11.8027V11.8027Z" fill="#021E05"/>
</svg>
