<svg width="33" height="33" viewBox="0 0 33 33" fill="none" xmlns="http://www.w3.org/2000/svg">
<g clip-path="url(#clip0)">
<path d="M32.1018 24.2187L27.4966 19.6134C25.8518 17.9687 23.0558 18.6267 22.3979 20.7647C21.9045 22.2451 20.2597 23.0674 18.7795 22.7384C15.49 21.9161 11.0493 17.6397 10.2269 14.1858C9.73347 12.7055 10.7203 11.0608 12.2006 10.5674C14.3387 9.90951 14.9966 7.11346 13.3519 5.46873L8.74663 0.863484C7.43084 -0.287828 5.45716 -0.287828 4.30585 0.863484L1.18086 3.98847C-1.94413 7.27794 1.50981 15.995 9.24005 23.7253C16.9703 31.4555 25.6874 35.074 28.9768 31.7844L32.1018 28.6594C33.2532 27.3437 33.2532 25.37 32.1018 24.2187Z" fill="#021E05"/>
</g>
<defs>
<clipPath id="clip0">
<rect width="33" height="33" fill="white"/>
</clipPath>
</defs>
</svg>
