<?xml version="1.0" encoding="utf-8"?><svg viewBox="0 0 119 27" xmlns="http://www.w3.org/2000/svg" xmlns:xlink="http://www.w3.org/1999/xlink"><style>:root>svg{display:none}:root>svg:target{display:block}</style><svg viewBox="0 0 27 27" id="cart" xmlns="http://www.w3.org/2000/svg"><g clip-path="url(#aclip0)"><path d="M26.6 9.76a1.866 1.866 0 00-1.468-.705h-5.2L17.112 2.6a.791.791 0 10-1.45.633l2.543 5.823h-9.41l2.543-5.823a.791.791 0 00-1.45-.633l-2.82 6.456h-5.2c-.576 0-1.11.257-1.467.704-.35.44-.48 1.004-.354 1.55l2.776 12.128a1.853 1.853 0 001.822 1.439h17.71c.879 0 1.628-.592 1.822-1.439l2.776-12.129A1.821 1.821 0 0026.6 9.76zm-4.245 13.534H4.645a.283.283 0 01-.28-.21L1.59 10.955a.242.242 0 01.049-.21.287.287 0 01.23-.107h4.51l-.208.474a.791.791 0 001.45.633l.484-1.107h10.792l.484 1.107a.791.791 0 101.45-.633l-.207-.475h4.509c.125 0 .198.068.23.108a.242.242 0 01.05.21l-2.777 12.13a.283.283 0 01-.28.209z"/><path d="M8.754 14.065a.791.791 0 00-.791.791v5.801a.791.791 0 001.582 0v-5.8a.791.791 0 00-.791-.792zM13.5 14.065a.79.79 0 00-.791.791v5.801a.791.791 0 001.582 0v-5.8a.79.79 0 00-.791-.792zM18.246 14.065a.79.79 0 00-.79.791v5.801a.791.791 0 001.581 0v-5.8a.791.791 0 00-.79-.792z"/></g><defs><clipPath id="aclip0"><path d="M0 0h27v27H0z"/></clipPath></defs></svg><svg viewBox="0 0 25 25" id="facebook" xmlns="http://www.w3.org/2000/svg"><g clip-path="url(#bclip0)"><path d="M16.663 4.151h2.283V.176C18.552.122 17.198 0 15.62 0c-3.29 0-5.545 2.07-5.545 5.874v3.501H6.445v4.444h3.631V25h4.452V13.82h3.484l.554-4.444h-4.039V6.315c.001-1.285.347-2.164 2.136-2.164z"/></g><defs><clipPath id="bclip0"><path d="M0 0h25v25H0z"/></clipPath></defs></svg><svg viewBox="0 0 25 25" id="instagram" xmlns="http://www.w3.org/2000/svg"><g clip-path="url(#cclip0)"><path d="M24.976 7.35c-.059-1.328-.274-2.241-.582-3.033A6.1 6.1 0 0022.95 2.1 6.153 6.153 0 0020.736.66C19.94.351 19.032.136 17.704.077 16.365.015 15.94 0 12.546 0 9.152 0 8.727.015 7.394.073 6.066.132 5.152.347 4.361.654A6.1 6.1 0 002.144 2.1a6.155 6.155 0 00-1.44 2.212C.395 5.108.18 6.017.121 7.345.06 8.683.044 9.108.044 12.502c0 3.395.015 3.82.073 5.153.059 1.328.274 2.241.581 3.033.318.84.811 1.592 1.446 2.217a6.153 6.153 0 002.212 1.44c.796.308 1.705.523 3.033.582 1.333.058 1.758.073 5.153.073 3.394 0 3.819-.015 5.152-.073 1.328-.059 2.242-.274 3.033-.581a6.394 6.394 0 003.658-3.658c.307-.796.522-1.705.58-3.033.06-1.334.074-1.758.074-5.153 0-3.394-.005-3.819-.064-5.152zm-2.252 10.207c-.054 1.221-.259 1.88-.43 2.32a4.147 4.147 0 01-2.373 2.373c-.44.171-1.104.377-2.32.43-1.319.059-1.714.073-5.05.073-3.335 0-3.736-.014-5.05-.073-1.22-.053-1.88-.259-2.32-.43a3.846 3.846 0 01-1.435-.932 3.886 3.886 0 01-.933-1.436c-.171-.44-.376-1.104-.43-2.32-.058-1.319-.073-1.714-.073-5.05 0-3.335.015-3.736.073-5.05.054-1.22.259-1.88.43-2.32a3.8 3.8 0 01.938-1.435 3.88 3.88 0 011.436-.933c.44-.17 1.103-.376 2.32-.43 1.318-.058 1.714-.073 5.05-.073 3.34 0 3.735.015 5.049.073 1.22.054 1.88.26 2.32.43.542.2 1.035.518 1.436.933.415.405.732.893.932 1.436.171.44.376 1.103.43 2.32.059 1.318.073 1.714.073 5.05 0 3.335-.014 3.725-.073 5.044z"/><path d="M12.546 6.08a6.424 6.424 0 00-6.422 6.422 6.424 6.424 0 006.422 6.423 6.424 6.424 0 006.422-6.423 6.424 6.424 0 00-6.422-6.422zm0 10.588a4.167 4.167 0 11.002-8.333 4.167 4.167 0 01-.002 8.333zM20.722 5.826a1.5 1.5 0 11-2.999 0 1.5 1.5 0 012.999 0z"/></g><defs><clipPath id="cclip0"><path d="M0 0h25v25H0z"/></clipPath></defs></svg><svg fill="none" viewBox="0 0 119 20" id="logo" xmlns="http://www.w3.org/2000/svg"><path d="M2.625 19.25c-.5 0-.925-.167-1.275-.5a1.736 1.736 0 01-.525-1.275c0-.517.167-.942.5-1.275.35-.35.783-.525 1.3-.525s.942.175 1.275.525c.35.333.525.758.525 1.275 0 .5-.175.925-.525 1.275-.333.333-.758.5-1.275.5zM10.95 7.1l.075 2V19h-2.8V.6h.35l10.8 12.05-.1-2.1V.625h2.8V19H21.7L10.95 7.1zm20.2 12.15c-1.184 0-2.234-.267-3.15-.8a5.551 5.551 0 01-2.126-2.175c-.5-.917-.75-1.933-.75-3.05 0-1.1.242-2.108.725-3.025a5.552 5.552 0 012.125-2.175c.917-.533 1.975-.8 3.175-.8 1.2 0 2.25.267 3.15.8a5.38 5.38 0 012.1 2.175c.5.917.75 1.925.75 3.025 0 1.117-.25 2.133-.75 3.05a5.551 5.551 0 01-2.125 2.175c-.9.533-1.941.8-3.125.8zm.074-2.2c.967 0 1.725-.358 2.275-1.075.567-.717.85-1.617.85-2.7 0-1.083-.3-1.992-.9-2.725-.6-.75-1.391-1.125-2.375-1.125-.95 0-1.716.367-2.3 1.1-.566.733-.85 1.65-.85 2.75 0 1.067.309 1.967.925 2.7.617.717 1.409 1.075 2.375 1.075zm6.984-9.525h3.075l2.475 5.175.8 2.075.8-2.075 2.45-5.175h3L44.783 19h-.525l-6.05-11.475zm19.4 11.725a5.894 5.894 0 01-2.875-.725 5.766 5.766 0 01-2.1-2.1c-.517-.917-.775-1.983-.775-3.2 0-1.2.225-2.25.675-3.15a5.11 5.11 0 011.975-2.1c.85-.5 1.85-.75 3-.75.666 0 1.291.117 1.875.35a5.084 5.084 0 011.475.875c.4.333.667.667.8 1l.05-1.925h2.575V19h-2.55l-.05-2.025c-.283.6-.8 1.133-1.55 1.6-.75.45-1.592.675-2.525.675zm.45-2.25c.95 0 1.75-.325 2.4-.975.65-.667.975-1.533.975-2.6v-.175c0-.717-.15-1.358-.45-1.925A3.362 3.362 0 0059.758 10a3.191 3.191 0 00-1.7-.475c-1.067 0-1.892.35-2.475 1.05-.584.683-.875 1.575-.875 2.675 0 1.117.283 2.025.85 2.725.583.683 1.416 1.025 2.5 1.025zm10.93-7.325h-1.85v-2.15h1.85V5.05c0-1.5.359-2.658 1.076-3.475.733-.833 1.8-1.25 3.2-1.25.566 0 1.208.158 1.925.475l-.525 2.55c-.117-.133-.3-.258-.55-.375a1.535 1.535 0 00-.775-.2c-1.117 0-1.684.725-1.7 2.175v2.575h2.7v2.15h-2.7V19h-2.65V9.675zm8.2-9.05h2.676V19h-2.675V.625zM89.012 19.25c-1.184 0-2.234-.267-3.15-.8a5.552 5.552 0 01-2.125-2.175c-.5-.917-.75-1.933-.75-3.05 0-1.1.241-2.108.725-3.025a5.553 5.553 0 012.125-2.175c.916-.533 1.975-.8 3.175-.8 1.2 0 2.25.267 3.15.8a5.38 5.38 0 012.1 2.175c.5.917.75 1.925.75 3.025 0 1.117-.25 2.133-.75 3.05a5.551 5.551 0 01-2.125 2.175c-.9.533-1.942.8-3.125.8zm.075-2.2c.966 0 1.725-.358 2.275-1.075.566-.717.85-1.617.85-2.7 0-1.083-.3-1.992-.9-2.725-.6-.75-1.392-1.125-2.375-1.125-.95 0-1.717.367-2.3 1.1-.567.733-.85 1.65-.85 2.75 0 1.067.308 1.967.925 2.7.616.717 1.408 1.075 2.375 1.075zm8.733-9.525h2.7v2.25c.267-.767.7-1.383 1.3-1.85.6-.467 1.283-.7 2.05-.7.533 0 .9.05 1.1.15l-.375 2.725c-.15-.1-.475-.15-.975-.15-.783 0-1.5.25-2.15.75-.633.5-.95 1.3-.95 2.4V19h-2.7V7.525zm14.135 11.725a5.891 5.891 0 01-2.875-.725 5.761 5.761 0 01-2.1-2.1c-.517-.917-.775-1.983-.775-3.2 0-1.2.225-2.25.675-3.15.466-.9 1.125-1.6 1.975-2.1.85-.5 1.85-.75 3-.75.666 0 1.291.117 1.875.35a5.088 5.088 0 011.475.875c.4.333.666.667.8 1l.05-1.925h2.575V19h-2.55l-.05-2.025c-.284.6-.8 1.133-1.55 1.6-.75.45-1.592.675-2.525.675zm.45-2.25c.95 0 1.75-.325 2.4-.975.65-.667.975-1.533.975-2.6v-.175c0-.717-.15-1.358-.45-1.925A3.367 3.367 0 00114.104 10a3.194 3.194 0 00-1.7-.475c-1.067 0-1.892.35-2.475 1.05-.584.683-.875 1.575-.875 2.675 0 1.117.283 2.025.85 2.725.583.683 1.416 1.025 2.5 1.025z" fill="#021E05"/></svg><svg fill="none" viewBox="0 0 119 20" id="logo-f" xmlns="http://www.w3.org/2000/svg"><path d="M2.625 19.25c-.5 0-.925-.167-1.275-.5a1.736 1.736 0 01-.525-1.275c0-.517.167-.942.5-1.275.35-.35.783-.525 1.3-.525s.942.175 1.275.525c.35.333.525.758.525 1.275 0 .5-.175.925-.525 1.275-.333.333-.758.5-1.275.5zM10.95 7.1l.075 2V19h-2.8V.6h.35l10.8 12.05-.1-2.1V.625h2.8V19H21.7L10.95 7.1zm20.2 12.15c-1.184 0-2.234-.267-3.15-.8a5.551 5.551 0 01-2.126-2.175c-.5-.917-.75-1.933-.75-3.05 0-1.1.242-2.108.725-3.025a5.552 5.552 0 012.125-2.175c.917-.533 1.975-.8 3.175-.8 1.2 0 2.25.267 3.15.8a5.38 5.38 0 012.1 2.175c.5.917.75 1.925.75 3.025 0 1.117-.25 2.133-.75 3.05a5.551 5.551 0 01-2.125 2.175c-.9.533-1.941.8-3.125.8zm.074-2.2c.967 0 1.725-.358 2.275-1.075.567-.717.85-1.617.85-2.7 0-1.083-.3-1.992-.9-2.725-.6-.75-1.391-1.125-2.375-1.125-.95 0-1.716.367-2.3 1.1-.566.733-.85 1.65-.85 2.75 0 1.067.309 1.967.925 2.7.617.717 1.409 1.075 2.375 1.075zm6.984-9.525h3.075l2.475 5.175.8 2.075.8-2.075 2.45-5.175h3L44.783 19h-.525l-6.05-11.475zm19.4 11.725a5.894 5.894 0 01-2.875-.725 5.766 5.766 0 01-2.1-2.1c-.517-.917-.775-1.983-.775-3.2 0-1.2.225-2.25.675-3.15a5.11 5.11 0 011.975-2.1c.85-.5 1.85-.75 3-.75.666 0 1.291.117 1.875.35a5.084 5.084 0 011.475.875c.4.333.667.667.8 1l.05-1.925h2.575V19h-2.55l-.05-2.025c-.283.6-.8 1.133-1.55 1.6-.75.45-1.592.675-2.525.675zm.45-2.25c.95 0 1.75-.325 2.4-.975.65-.667.975-1.533.975-2.6v-.175c0-.717-.15-1.358-.45-1.925A3.362 3.362 0 0059.758 10a3.191 3.191 0 00-1.7-.475c-1.067 0-1.892.35-2.475 1.05-.584.683-.875 1.575-.875 2.675 0 1.117.283 2.025.85 2.725.583.683 1.416 1.025 2.5 1.025zm10.93-7.325h-1.85v-2.15h1.85V5.05c0-1.5.359-2.658 1.076-3.475.733-.833 1.8-1.25 3.2-1.25.566 0 1.208.158 1.925.475l-.525 2.55c-.117-.133-.3-.258-.55-.375a1.535 1.535 0 00-.775-.2c-1.117 0-1.684.725-1.7 2.175v2.575h2.7v2.15h-2.7V19h-2.65V9.675zm8.2-9.05h2.676V19h-2.675V.625zM89.012 19.25c-1.184 0-2.234-.267-3.15-.8a5.552 5.552 0 01-2.125-2.175c-.5-.917-.75-1.933-.75-3.05 0-1.1.241-2.108.725-3.025a5.553 5.553 0 012.125-2.175c.916-.533 1.975-.8 3.175-.8 1.2 0 2.25.267 3.15.8a5.38 5.38 0 012.1 2.175c.5.917.75 1.925.75 3.025 0 1.117-.25 2.133-.75 3.05a5.551 5.551 0 01-2.125 2.175c-.9.533-1.942.8-3.125.8zm.075-2.2c.966 0 1.725-.358 2.275-1.075.566-.717.85-1.617.85-2.7 0-1.083-.3-1.992-.9-2.725-.6-.75-1.392-1.125-2.375-1.125-.95 0-1.717.367-2.3 1.1-.567.733-.85 1.65-.85 2.75 0 1.067.308 1.967.925 2.7.616.717 1.408 1.075 2.375 1.075zm8.733-9.525h2.7v2.25c.267-.767.7-1.383 1.3-1.85.6-.467 1.283-.7 2.05-.7.533 0 .9.05 1.1.15l-.375 2.725c-.15-.1-.475-.15-.975-.15-.783 0-1.5.25-2.15.75-.633.5-.95 1.3-.95 2.4V19h-2.7V7.525zm14.135 11.725a5.891 5.891 0 01-2.875-.725 5.761 5.761 0 01-2.1-2.1c-.517-.917-.775-1.983-.775-3.2 0-1.2.225-2.25.675-3.15.466-.9 1.125-1.6 1.975-2.1.85-.5 1.85-.75 3-.75.666 0 1.291.117 1.875.35a5.088 5.088 0 011.475.875c.4.333.666.667.8 1l.05-1.925h2.575V19h-2.55l-.05-2.025c-.284.6-.8 1.133-1.55 1.6-.75.45-1.592.675-2.525.675zm.45-2.25c.95 0 1.75-.325 2.4-.975.65-.667.975-1.533.975-2.6v-.175c0-.717-.15-1.358-.45-1.925A3.367 3.367 0 00114.104 10a3.194 3.194 0 00-1.7-.475c-1.067 0-1.892.35-2.475 1.05-.584.683-.875 1.575-.875 2.675 0 1.117.283 2.025.85 2.725.583.683 1.416 1.025 2.5 1.025z" fill="#fff"/></svg><svg viewBox="0 0 24 23" id="search" xmlns="http://www.w3.org/2000/svg"><g clip-path="url(#fclip0)"><path d="M6.358 5.234a.851.851 0 00-1.203 0 5.804 5.804 0 00-1.663 4.707.85.85 0 001.693-.169 4.111 4.111 0 011.173-3.336.849.849 0 000-1.202z"/><path d="M9.726 0C4.363 0 0 4.358 0 9.716c0 5.357 4.363 9.715 9.726 9.715 5.364 0 9.727-4.358 9.727-9.715C19.453 4.358 15.089 0 9.726 0zm0 17.732c-4.425 0-8.025-3.596-8.025-8.016S5.301 1.7 9.726 1.7c4.425 0 8.025 3.595 8.025 8.016 0 4.42-3.6 8.016-8.025 8.016z"/><path d="M22.777 21.55l-6.182-6.175a.85.85 0 00-1.203 1.201l6.182 6.175a.848.848 0 001.203 0 .849.849 0 000-1.202z"/></g><defs><clipPath id="fclip0"><path d="M0 0h23.026v23H0z"/></clipPath></defs></svg><svg viewBox="0 0 25 25" id="twitter" xmlns="http://www.w3.org/2000/svg"><g clip-path="url(#gclip0)"><path d="M25 4.748c-.93.408-1.92.679-2.953.81a5.097 5.097 0 002.255-2.833c-.991.59-2.085 1.008-3.25 1.24a5.124 5.124 0 00-8.866 3.505c0 .407.034.797.119 1.17C8.044 8.43 4.273 6.39 1.74 3.277a5.16 5.16 0 00-.702 2.59c0 1.776.914 3.35 2.277 4.26A5.061 5.061 0 011 9.497v.056c0 2.49 1.777 4.56 4.106 5.036a5.118 5.118 0 01-1.343.169c-.329 0-.66-.019-.97-.088.663 2.03 2.548 3.522 4.788 3.57a10.298 10.298 0 01-6.354 2.187c-.42 0-.824-.02-1.227-.07 2.27 1.463 4.96 2.3 7.862 2.3 9.432 0 14.588-7.813 14.588-14.585 0-.227-.008-.445-.019-.663A10.225 10.225 0 0025 4.75z"/></g><defs><clipPath id="gclip0"><path d="M0 0h25v25H0z"/></clipPath></defs></svg></svg>